<?xml version="1.0" standalone="no"?>
<!DOCTYPE svg PUBLIC "-//W3C//DTD SVG 20010904//EN"
 "http://www.w3.org/TR/2001/REC-SVG-20010904/DTD/svg10.dtd">
<svg version="1.0" xmlns="http://www.w3.org/2000/svg"
 width="512.000000pt" height="512.000000pt" viewBox="0 0 512.000000 512.000000"
 preserveAspectRatio="xMidYMid meet">

<g transform="translate(0.000000,512.000000) scale(0.100000,-0.100000)"
fill="#409eff" stroke="none">
<path d="M2445 5110 c-132 -28 -241 -87 -335 -180 -75 -76 -121 -149 -157
-252 -23 -64 -27 -89 -27 -198 0 -109 4 -134 27 -198 36 -103 82 -176 157
-252 76 -75 149 -121 252 -157 64 -23 89 -27 198 -27 109 0 134 4 198 27 103
36 176 82 252 157 75 76 121 149 157 252 23 64 27 89 27 198 0 109 -4 134 -27
198 -36 103 -82 176 -157 252 -121 120 -256 179 -425 185 -55 2 -118 0 -140
-5z"/>
<path d="M2445 3190 c-132 -28 -241 -87 -335 -180 -75 -76 -121 -149 -157
-252 -23 -64 -27 -89 -27 -198 0 -109 4 -134 27 -198 36 -103 82 -176 157
-252 76 -75 149 -121 252 -157 64 -23 89 -27 198 -27 109 0 134 4 198 27 103
36 176 82 252 157 75 76 121 149 157 252 23 64 27 89 27 198 0 109 -4 134 -27
198 -36 103 -82 176 -157 252 -121 120 -256 179 -425 185 -55 2 -118 0 -140
-5z"/>
<path d="M2445 1270 c-132 -28 -241 -87 -335 -180 -75 -76 -121 -149 -157
-252 -23 -64 -27 -89 -27 -198 0 -109 4 -134 27 -198 36 -103 82 -176 157
-252 76 -75 149 -121 252 -157 64 -23 89 -27 198 -27 109 0 134 4 198 27 103
36 176 82 252 157 75 76 121 149 157 252 23 64 27 89 27 198 0 109 -4 134 -27
198 -36 103 -82 176 -157 252 -121 120 -256 179 -425 185 -55 2 -118 0 -140
-5z"/>
</g>
</svg>
