<svg width="174" height="44" viewBox="0 0 174 44" fill="none" xmlns="http://www.w3.org/2000/svg">
<path d="M113.505 19.1313C112.201 19.1313 111.089 19.2386 110.179 19.4531C109.265 19.6677 108.381 20.0711 107.527 20.6633C106.982 21.0453 106.545 21.5645 106.21 22.2297C105.875 22.8949 105.712 23.5214 105.712 24.1179V34.7606H100.695V15.0073H105.712V17.0714C106.802 16.2646 108.021 15.6724 109.36 15.2905C110.699 14.9128 112.085 14.7197 113.505 14.7197V19.1356V19.1313Z" fill="#959595"/>
<path d="M173.529 19.1313C172.224 19.1313 171.113 19.2386 170.203 19.4531C169.289 19.6677 168.405 20.0711 167.551 20.6633C167.006 21.0453 166.568 21.5645 166.233 22.2297C165.898 22.8949 165.735 23.5214 165.735 24.1179V34.7606H160.719V15.0073H165.735V17.0714C166.825 16.2646 168.044 15.6724 169.383 15.2905C170.722 14.9128 172.108 14.7197 173.529 14.7197V19.1356V19.1313Z" fill="#959595"/>
<path d="M66.0588 20.0877H71.5261V16.1396H66.0588V11.0801L57.6562 19.1651V20.0877H61.2868V29.0439C61.2868 32.7431 63.2179 34.7558 67.4278 34.7558H71.5304V30.061H68.6895C67.1059 30.061 66.0631 29.5803 66.0631 27.808V20.0835L66.0588 20.0877Z" fill="#959595"/>
<path d="M129.82 9.11914V17.423C128.164 16.1056 126.069 15.3159 123.786 15.3159C118.418 15.3159 114.066 19.6674 114.066 25.036C114.066 30.4045 118.418 34.756 123.786 34.756C126.069 34.756 128.164 33.9621 129.82 32.6489V34.756H135.073V9.11914H129.82ZM124.653 30.1513C121.804 30.1513 119.491 27.8426 119.491 24.9888C119.491 22.135 121.8 19.8262 124.653 19.8262C127.507 19.8262 129.816 22.135 129.816 24.9888C129.816 27.8426 127.507 30.1513 124.653 30.1513Z" fill="#959595"/>
<path d="M87.8898 15.0195C82.4397 15.0195 78.0195 19.4397 78.0195 24.8898C78.0195 30.3399 82.4397 34.76 87.8898 34.76C93.3399 34.76 97.76 30.3399 97.76 24.8898C97.76 19.4397 93.3399 15.0195 87.8898 15.0195ZM87.8898 30.1939C84.9587 30.1939 82.5813 27.8165 82.5813 24.8855C82.5813 21.9544 84.9587 19.577 87.8898 19.577C90.8208 19.577 93.1982 21.9544 93.1982 24.8855C93.1982 27.8165 90.8208 30.1939 87.8898 30.1939Z" fill="#959595"/>
<path d="M157.705 26.1343C157.757 25.7266 157.791 25.3103 157.791 24.8898C157.791 19.4397 153.371 15.0195 147.921 15.0195C142.471 15.0195 138.051 19.4397 138.051 24.8898C138.051 30.3399 142.471 34.76 147.921 34.76C152.247 34.76 155.912 31.9706 157.246 28.0997H152.144C151.174 29.3743 149.646 30.1982 147.921 30.1982C145.419 30.1982 143.325 28.4645 142.767 26.13H153.079C153.079 26.13 153.079 26.13 153.079 26.1343H157.705ZM147.925 19.5813C150.071 19.5813 151.916 20.8601 152.753 22.6926H143.097C143.934 20.8601 145.78 19.5813 147.925 19.5813Z" fill="#959595"/>
<path d="M76.3538 11.1451C76.1177 11.0292 75.8517 10.9648 75.5727 10.9648C74.5857 10.9648 73.7832 11.7673 73.7832 12.7544C73.7832 13.1921 73.942 13.5912 74.2038 13.9045C74.2038 13.9045 74.2252 13.9259 74.2338 13.9388C74.2381 13.9474 74.2467 13.9517 74.251 13.9602C76.6885 16.7625 73.9634 18.934 73.9634 18.934C73.9634 18.934 74.1694 19.2515 74.2595 19.3932C78.7612 18.0414 78.4523 12.1364 76.3495 11.1494L76.3538 11.1451Z" fill="#959595"/>
<path d="M74.3066 19.453C74.3066 19.453 74.2894 19.4273 74.2637 19.3887L74.3066 19.453Z" fill="#959595"/>
<path d="M34.1879 31.9453L51.0359 21.4786L34.1836 11.1191" stroke="#959595" stroke-width="1.575" stroke-linecap="square" stroke-linejoin="round"/>
<path d="M34.1826 11.1192L18.0598 1.36914L1.22461 11.8573L17.2573 21.6546" stroke="#959595" stroke-width="1.575" stroke-linecap="square" stroke-linejoin="round"/>
<path d="M33.6939 11.4067L17.2578 21.6545V22.2425V42.5108L34.1874 31.9453V31.8338L34.1831 11.7071V11.1191L33.6939 11.4067Z" stroke="#959595" stroke-width="1.575" stroke-linecap="square" stroke-linejoin="round"/>
</svg>
