<svg width="175" height="44" viewBox="0 0 175 44" fill="none" xmlns="http://www.w3.org/2000/svg">
<path d="M113.71 19.1909C112.406 19.1909 111.294 19.2981 110.384 19.5127C109.47 19.7273 108.586 20.1307 107.732 20.7229C107.187 21.1048 106.75 21.6241 106.415 22.2893C106.08 22.9544 105.917 23.581 105.917 24.1775V34.8202H100.9V15.0668H105.917V17.131C107.007 16.3242 108.226 15.732 109.565 15.3501C110.904 14.9724 112.29 14.7793 113.71 14.7793V19.1952V19.1909Z" fill="#D5D5D5"/>
<path d="M173.734 19.1909C172.429 19.1909 171.318 19.2981 170.408 19.5127C169.494 19.7273 168.61 20.1307 167.756 20.7229C167.211 21.1048 166.773 21.6241 166.438 22.2893C166.104 22.9544 165.94 23.581 165.94 24.1775V34.8202H160.924V15.0668H165.94V17.131C167.031 16.3242 168.249 15.732 169.588 15.3501C170.927 14.9724 172.313 14.7793 173.734 14.7793V19.1952V19.1909Z" fill="#D5D5D5"/>
<path d="M66.2639 20.1473H71.7312V16.1992H66.2639V11.1396L57.8613 19.2247V20.1473H61.4919V29.1035C61.4919 32.8027 63.423 34.8153 67.6329 34.8153H71.7354V30.1205H68.8945C67.311 30.1205 66.2682 29.6399 66.2682 27.8676V20.143L66.2639 20.1473Z" fill="#D5D5D5"/>
<path d="M130.025 9.17871V17.4826C128.369 16.1651 126.275 15.3755 123.992 15.3755C118.623 15.3755 114.271 19.727 114.271 25.0955C114.271 30.4641 118.623 34.8156 123.992 34.8156C126.275 34.8156 128.369 34.0217 130.025 32.7085V34.8156H135.278V9.17871H130.025ZM124.858 30.2109C122.009 30.2109 119.696 27.9021 119.696 25.0483C119.696 22.1945 122.005 19.8858 124.858 19.8858C127.712 19.8858 130.021 22.1945 130.021 25.0483C130.021 27.9021 127.712 30.2109 124.858 30.2109Z" fill="#D5D5D5"/>
<path d="M88.0948 15.0791C82.6448 15.0791 78.2246 19.4993 78.2246 24.9493C78.2246 30.3994 82.6448 34.8196 88.0948 34.8196C93.5449 34.8196 97.9651 30.3994 97.9651 24.9493C97.9651 19.4993 93.5449 15.0791 88.0948 15.0791ZM88.0948 30.2535C85.1638 30.2535 82.7864 27.8761 82.7864 24.945C82.7864 22.014 85.1638 19.6366 88.0948 19.6366C91.0259 19.6366 93.4033 22.014 93.4033 24.945C93.4033 27.8761 91.0259 30.2535 88.0948 30.2535Z" fill="#D5D5D5"/>
<path d="M157.911 26.1938C157.962 25.7862 157.996 25.3699 157.996 24.9493C157.996 19.4993 153.576 15.0791 148.126 15.0791C142.676 15.0791 138.256 19.4993 138.256 24.9493C138.256 30.3994 142.676 34.8196 148.126 34.8196C152.452 34.8196 156.117 32.0302 157.451 28.1593H152.349C151.379 29.4339 149.851 30.2578 148.126 30.2578C145.624 30.2578 143.53 28.5241 142.972 26.1896H153.284C153.284 26.1896 153.284 26.1896 153.284 26.1938H157.911ZM148.13 19.6409C150.276 19.6409 152.121 20.9197 152.958 22.7521H143.303C144.139 20.9197 145.985 19.6409 148.13 19.6409Z" fill="#D5D5D5"/>
<path d="M76.5588 11.2047C76.3228 11.0888 76.0567 11.0244 75.7778 11.0244C74.7908 11.0244 73.9883 11.8269 73.9883 12.8139C73.9883 13.2517 74.1471 13.6508 74.4088 13.964C74.4088 13.964 74.4303 13.9855 74.4389 13.9984C74.4432 14.0069 74.4518 14.0112 74.456 14.0198C76.8936 16.8221 74.1685 18.9936 74.1685 18.9936C74.1685 18.9936 74.3745 19.3111 74.4646 19.4527C78.9663 18.1009 78.6573 12.196 76.5545 11.2089L76.5588 11.2047Z" fill="#D5D5D5"/>
<path d="M74.5117 19.5126C74.5117 19.5126 74.4945 19.4869 74.4688 19.4482L74.5117 19.5126Z" fill="#D5D5D5"/>
<path d="M34.391 32.0049L51.2391 21.5382L34.3867 11.1787" stroke="#D5D5D5" stroke-width="1.575" stroke-linecap="square" stroke-linejoin="round"/>
<path d="M34.3877 11.1788L18.2649 1.42871L1.42969 11.9169L17.4624 21.7142" stroke="#D5D5D5" stroke-width="1.575" stroke-linecap="square" stroke-linejoin="round"/>
<path d="M33.899 11.4662L17.4629 21.7141V22.302V42.5704L34.3925 32.0049V31.8933L34.3882 11.7666V11.1787L33.899 11.4662Z" stroke="#D5D5D5" stroke-width="1.575" stroke-linecap="square" stroke-linejoin="round"/>
</svg>
