<svg width="104" height="48" viewBox="0 0 104 48" fill="none" xmlns="http://www.w3.org/2000/svg">
<path fill-rule="evenodd" clip-rule="evenodd" d="M21.0126 0C32.6193 0 42.0243 9.40776 42.0252 21.0109C42.025 22.8632 41.7834 24.6584 41.3337 26.3698C40.0985 32.6232 36.6545 38.0643 31.1899 42.3105C25.967 46.3653 20.8078 47.8859 20.5897 47.9497C20.4822 47.9799 20.3715 47.9967 20.2641 47.9967C20.0123 47.9967 19.7639 47.9161 19.5592 47.7617C19.2671 47.5401 19.0926 47.1944 19.0926 46.8252V41.9379C8.38825 40.9678 0 31.972 0 21.0126C0 9.40867 9.40531 0 21.0126 0ZM42.0252 21.0109C42.0252 21.0115 42.0252 21.012 42.0252 21.0126V21.0092C42.0252 21.0098 42.0252 21.0103 42.0252 21.0109ZM25.4031 30.7804C23.181 30.7804 21.3718 28.9712 21.3718 26.7491V12.3894V12.3894C21.3718 12.3222 21.3718 12.2585 21.3651 12.1947C21.4154 11.8423 21.4423 11.4797 21.4423 11.1139V8.38491C21.4423 6.97512 20.2976 5.83051 18.8879 5.83051C17.4781 5.83051 16.3334 6.97512 16.3334 8.38491V11.1139C16.3334 12.5841 15.1385 13.7824 13.6683 13.7824H11.2347C9.82491 13.7824 8.6803 14.927 8.6803 16.3368C8.6803 17.7466 9.82491 18.8912 11.2347 18.8912H13.6683C14.5779 18.8912 15.454 18.7334 16.2663 18.4448V26.7525C16.2663 31.7941 20.3681 35.8926 25.4065 35.8926C26.8162 35.8926 27.9609 34.748 27.9609 33.3382C27.9609 31.9284 26.8162 30.7838 25.4065 30.7838L25.4031 30.7804ZM25.6683 18.8878C27.0791 18.8878 28.2227 17.7442 28.2227 16.3334C28.2227 14.9227 27.0791 13.779 25.6683 13.779C24.2575 13.779 23.1139 14.9227 23.1139 16.3334C23.1139 17.7442 24.2575 18.8878 25.6683 18.8878Z" fill="white"/>
<path d="M89.7566 14.4339C91.1395 14.4339 92.2606 13.3128 92.2606 11.9298C92.2606 10.5469 91.1395 9.42578 89.7566 9.42578H77.9479C76.565 9.42578 75.4438 10.5469 75.4438 11.9298V25.1617C75.4438 26.5447 76.565 27.6658 77.9479 27.6658H89.7566C91.1395 27.6658 92.2606 26.5447 92.2606 25.1617C92.2606 23.7788 91.1395 22.6577 89.7566 22.6577H80.452V14.4339H89.7566Z" fill="white"/>
<path d="M70.2077 33.0848H63.8335V28.4157C68.0091 27.2811 71.0872 23.4579 71.0872 18.9298C71.0872 13.5088 66.6765 9.10156 61.2589 9.10156C55.8413 9.10156 51.4307 13.5122 51.4307 18.9298C51.4307 23.5116 54.5792 27.3684 58.8287 28.456V35.5888C58.8287 36.9718 59.9498 38.0929 61.3328 38.0929H70.2111C71.594 38.0929 72.7151 36.9718 72.7151 35.5888C72.7151 34.2059 71.594 33.0848 70.2111 33.0848H70.2077ZM56.4388 18.9298C56.4388 16.2714 58.6038 14.1063 61.2623 14.1063C63.9207 14.1063 66.0858 16.2714 66.0858 18.9298C66.0858 21.5883 63.9207 23.7533 61.2623 23.7533C58.6038 23.7533 56.4388 21.5883 56.4388 18.9298Z" fill="white"/>
<path d="M101.391 16.2266H93.9928C92.6099 16.2266 91.4888 17.3477 91.4888 18.7306C91.4888 20.1136 92.6099 21.2347 93.9928 21.2347H98.8868V27.948C98.8868 29.3309 100.008 30.452 101.391 30.452C102.774 30.452 103.895 29.3309 103.895 27.948V18.7306C103.895 17.3477 102.774 16.2266 101.391 16.2266Z" fill="white"/>
</svg>
