<svg width="92" height="43" viewBox="0 0 92 43" fill="none" xmlns="http://www.w3.org/2000/svg">
<path fill-rule="evenodd" clip-rule="evenodd" d="M19.0617 0.939941C29.1518 0.939941 37.3278 9.11836 37.3285 19.2053C37.3284 20.8155 37.1183 22.3762 36.7274 23.8639C35.6536 29.3002 32.6597 34.0303 27.9092 37.7216C23.3687 41.2466 18.8837 42.5684 18.6941 42.6239C18.6007 42.6501 18.5044 42.6647 18.411 42.6647C18.1922 42.6647 17.9762 42.5947 17.7982 42.4605C17.5444 42.2679 17.3926 41.9673 17.3926 41.6463V37.3977C8.08706 36.5544 0.794922 28.7341 0.794922 19.2067C0.794922 9.11915 8.97122 0.939941 19.0617 0.939941ZM37.3285 19.2053C37.3285 19.2058 37.3285 19.2063 37.3285 19.2067V19.2038C37.3285 19.2043 37.3285 19.2048 37.3285 19.2053ZM22.8785 27.6983C20.9468 27.6983 19.374 26.1254 19.374 24.1937V11.7104V11.7104C19.374 11.652 19.374 11.5966 19.3681 11.5412C19.4119 11.2348 19.4353 10.9196 19.4353 10.6016V8.22922C19.4353 7.00365 18.4402 6.00861 17.2146 6.00861C15.9891 6.00861 14.994 7.00365 14.994 8.22922V10.6016C14.994 11.8797 13.9552 12.9214 12.6771 12.9214H10.5616C9.33598 12.9214 8.34094 13.9164 8.34094 15.142C8.34094 16.3676 9.33598 17.3626 10.5616 17.3626H12.6771C13.4679 17.3626 14.2295 17.2255 14.9357 16.9745V24.1966C14.9357 28.5795 18.5015 32.1424 22.8814 32.1424C24.107 32.1424 25.1021 31.1474 25.1021 29.9218C25.1021 28.6962 24.107 27.7012 22.8814 27.7012L22.8785 27.6983ZM23.1091 17.3596C24.3355 17.3596 25.3297 16.3654 25.3297 15.139C25.3297 13.9126 24.3355 12.9184 23.1091 12.9184C21.8826 12.9184 20.8884 13.9126 20.8884 15.139C20.8884 16.3654 21.8826 17.3596 23.1091 17.3596Z" fill="#959595"/>
<path d="M78.8233 13.4904C80.0255 13.4904 81.0001 12.5158 81.0001 11.3136C81.0001 10.1113 80.0255 9.13672 78.8233 9.13672H68.5577C67.3555 9.13672 66.3809 10.1113 66.3809 11.3136V22.8164C66.3809 24.0186 67.3555 24.9932 68.5577 24.9932H78.8233C80.0255 24.9932 81.0001 24.0186 81.0001 22.8164C81.0001 21.6142 80.0255 20.6396 78.8233 20.6396H70.7345V13.4904H78.8233Z" fill="#959595"/>
<path d="M61.8283 29.7028H56.287V25.6438C59.917 24.6575 62.5928 21.3339 62.5928 17.3975C62.5928 12.6849 58.7585 8.85352 54.0488 8.85352C49.3392 8.85352 45.5049 12.6878 45.5049 17.3975C45.5049 21.3806 48.242 24.7334 51.9362 25.6788V31.8796C51.9362 33.0818 52.9108 34.0565 54.113 34.0565H61.8312C63.0334 34.0565 64.0081 33.0818 64.0081 31.8796C64.0081 30.6774 63.0334 29.7028 61.8312 29.7028H61.8283ZM49.8586 17.3975C49.8586 15.0864 51.7407 13.2043 54.0518 13.2043C56.3628 13.2043 58.245 15.0864 58.245 17.3975C58.245 19.7086 56.3628 21.5907 54.0518 21.5907C51.7407 21.5907 49.8586 19.7086 49.8586 17.3975Z" fill="#959595"/>
<path d="M88.9363 15.0483H82.505C81.3027 15.0483 80.3281 16.023 80.3281 17.2252C80.3281 18.4274 81.3027 19.402 82.505 19.402H86.7594V25.2381C86.7594 26.4403 87.7341 27.4149 88.9363 27.4149C90.1385 27.4149 91.1131 26.4403 91.1131 25.2381V17.2252C91.1131 16.023 90.1385 15.0483 88.9363 15.0483Z" fill="#959595"/>
</svg>
