<svg width="92" height="44" viewBox="0 0 92 44" fill="none" xmlns="http://www.w3.org/2000/svg">
<path fill-rule="evenodd" clip-rule="evenodd" d="M19.0617 0.94043C29.1518 0.94043 37.3278 9.11885 37.3285 19.2058C37.3284 20.816 37.1183 22.3767 36.7274 23.8644C35.6536 29.3007 32.6597 34.0308 27.9092 37.7221C23.3687 41.247 18.8837 42.5689 18.6941 42.6244C18.6007 42.6506 18.5044 42.6652 18.411 42.6652C18.1922 42.6652 17.9762 42.5952 17.7982 42.4609C17.5444 42.2684 17.3926 41.9678 17.3926 41.6468V37.3982C8.08706 36.5549 0.794922 28.7346 0.794922 19.2072C0.794922 9.11964 8.97122 0.94043 19.0617 0.94043ZM37.3285 19.2058C37.3285 19.2063 37.3285 19.2068 37.3285 19.2072V19.2043C37.3285 19.2048 37.3285 19.2053 37.3285 19.2058ZM22.8785 27.6987C20.9468 27.6987 19.374 26.1259 19.374 24.1942V11.7109V11.7109C19.374 11.6525 19.374 11.5971 19.3681 11.5417C19.4119 11.2353 19.4353 10.9201 19.4353 10.6021V8.22971C19.4353 7.00414 18.4402 6.0091 17.2146 6.0091C15.9891 6.0091 14.994 7.00414 14.994 8.22971V10.6021C14.994 11.8802 13.9552 12.9219 12.6771 12.9219H10.5616C9.33598 12.9219 8.34094 13.9169 8.34094 15.1425C8.34094 16.3681 9.33598 17.3631 10.5616 17.3631H12.6771C13.4679 17.3631 14.2295 17.226 14.9357 16.975V24.1971C14.9357 28.58 18.5015 32.1429 22.8814 32.1429C24.107 32.1429 25.1021 31.1478 25.1021 29.9223C25.1021 28.6967 24.107 27.7017 22.8814 27.7017L22.8785 27.6987ZM23.1091 17.3601C24.3355 17.3601 25.3297 16.3659 25.3297 15.1395C25.3297 13.9131 24.3355 12.9189 23.1091 12.9189C21.8826 12.9189 20.8884 13.9131 20.8884 15.1395C20.8884 16.3659 21.8826 17.3601 23.1091 17.3601Z" fill="#D5D5D5"/>
<path d="M78.8213 13.4914C80.0236 13.4914 80.9982 12.5168 80.9982 11.3145C80.9982 10.1123 80.0236 9.1377 78.8213 9.1377H68.5558C67.3535 9.1377 66.3789 10.1123 66.3789 11.3145V22.8174C66.3789 24.0196 67.3535 24.9942 68.5558 24.9942H78.8213C80.0236 24.9942 80.9982 24.0196 80.9982 22.8174C80.9982 21.6152 80.0236 20.6405 78.8213 20.6405H70.7326V13.4914H78.8213Z" fill="#D5D5D5"/>
<path d="M61.8273 29.7037H56.286V25.6448C59.916 24.6585 62.5918 21.3349 62.5918 17.3985C62.5918 12.6859 58.7576 8.85449 54.0479 8.85449C49.3382 8.85449 45.5039 12.6888 45.5039 17.3985C45.5039 21.3816 48.241 24.7344 51.9352 25.6798V31.8806C51.9352 33.0828 52.9098 34.0574 54.1121 34.0574H61.8302C63.0325 34.0574 64.0071 33.0828 64.0071 31.8806C64.0071 30.6784 63.0325 29.7037 61.8302 29.7037H61.8273ZM49.8576 17.3985C49.8576 15.0874 51.7397 13.2053 54.0508 13.2053C56.3619 13.2053 58.244 15.0874 58.244 17.3985C58.244 19.7095 56.3619 21.5917 54.0508 21.5917C51.7397 21.5917 49.8576 19.7095 49.8576 17.3985Z" fill="#D5D5D5"/>
<path d="M88.9363 15.0498H82.505C81.3027 15.0498 80.3281 16.0244 80.3281 17.2266C80.3281 18.4289 81.3027 19.4035 82.505 19.4035H86.7594V25.2395C86.7594 26.4418 87.7341 27.4164 88.9363 27.4164C90.1385 27.4164 91.1131 26.4418 91.1131 25.2395V17.2266C91.1131 16.0244 90.1385 15.0498 88.9363 15.0498Z" fill="#D5D5D5"/>
</svg>
