<svg width="198" height="48" viewBox="0 0 198 48" fill="none" xmlns="http://www.w3.org/2000/svg">
<path d="M128.811 20.7918C127.32 20.7918 126.05 20.9144 125.01 21.1596C123.965 21.4048 122.955 21.8659 121.979 22.5427C121.356 22.9792 120.856 23.5726 120.473 24.3328C120.091 25.093 119.904 25.8091 119.904 26.4908V38.6539H114.171V16.0786H119.904V18.4376C121.15 17.5156 122.543 16.8388 124.073 16.4023C125.603 15.9707 127.187 15.75 128.811 15.75V20.7967V20.7918Z" fill="white"/>
<path d="M197.409 20.7918C195.918 20.7918 194.648 20.9144 193.608 21.1596C192.564 21.4048 191.553 21.8659 190.577 22.5427C189.955 22.9792 189.454 23.5726 189.072 24.3328C188.689 25.093 188.503 25.8091 188.503 26.4908V38.6539H182.77V16.0786H188.503V18.4376C189.749 17.5156 191.141 16.8388 192.672 16.4023C194.202 15.9707 195.786 15.75 197.409 15.75V20.7967V20.7918Z" fill="white"/>
<path d="M74.5868 21.8882H80.8351V17.3761H74.5868V11.5938L64.9839 20.8338V21.8882H69.1331V32.1238C69.1331 36.3515 71.3401 38.6517 76.1514 38.6517H80.84V33.2862H77.5933C75.7835 33.2862 74.5917 32.7369 74.5917 30.7114V21.8833L74.5868 21.8882Z" fill="white"/>
<path d="M147.457 9.35156V18.8417C145.564 17.336 143.171 16.4336 140.562 16.4336C134.426 16.4336 129.453 21.4067 129.453 27.5422C129.453 33.6777 134.426 38.6508 140.562 38.6508C143.171 38.6508 145.564 37.7435 147.457 36.2427V38.6508H153.46V9.35156H147.457ZM141.552 33.3883C138.296 33.3883 135.652 30.7497 135.652 27.4883C135.652 24.2268 138.291 21.5882 141.552 21.5882C144.814 21.5882 147.453 24.2268 147.453 27.4883C147.453 30.7497 144.814 33.3883 141.552 33.3883Z" fill="white"/>
<path d="M99.5356 16.0938C93.307 16.0938 88.2554 21.1453 88.2554 27.374C88.2554 33.6027 93.307 38.6543 99.5356 38.6543C105.764 38.6543 110.816 33.6027 110.816 27.374C110.816 21.1453 105.764 16.0938 99.5356 16.0938ZM99.5356 33.4359C96.1859 33.4359 93.4688 30.7189 93.4688 27.3691C93.4688 24.0194 96.1859 21.3023 99.5356 21.3023C102.885 21.3023 105.602 24.0194 105.602 27.3691C105.602 30.7189 102.885 33.4359 99.5356 33.4359Z" fill="white"/>
<path d="M179.327 28.7963C179.386 28.3304 179.425 27.8547 179.425 27.374C179.425 21.1453 174.373 16.0938 168.145 16.0938C161.916 16.0938 156.864 21.1453 156.864 27.374C156.864 33.6027 161.916 38.6543 168.145 38.6543C173.088 38.6543 177.277 35.4664 178.802 31.0426H172.971C171.862 32.4992 170.116 33.4408 168.145 33.4408C165.285 33.4408 162.892 31.4594 162.254 28.7914H174.04C174.04 28.7914 174.04 28.7914 174.04 28.7963H179.327ZM168.149 21.3072C170.602 21.3072 172.711 22.7687 173.667 24.8629H162.632C163.588 22.7687 165.697 21.3072 168.149 21.3072Z" fill="white"/>
<path d="M86.3528 11.6669C86.0831 11.5345 85.779 11.4609 85.4602 11.4609C84.3322 11.4609 83.415 12.3781 83.415 13.5061C83.415 14.0064 83.5965 14.4625 83.8957 14.8205C83.8957 14.8205 83.9202 14.845 83.93 14.8597C83.9349 14.8695 83.9447 14.8744 83.9496 14.8843C86.7354 18.0869 83.621 20.5685 83.621 20.5685C83.621 20.5685 83.8564 20.9315 83.9594 21.0933C89.1042 19.5484 88.7511 12.7999 86.3479 11.6718L86.3528 11.6669Z" fill="white"/>
<path d="M84.0134 21.1634C84.0134 21.1634 83.9938 21.134 83.9644 21.0898L84.0134 21.1634Z" fill="white"/>
<path d="M38.1616 35.4381L57.4166 23.4761L38.1567 11.6367" stroke="white" stroke-width="0.980893" stroke-linecap="square" stroke-linejoin="round"/>
<path d="M38.1565 11.6351L19.7304 0.492188L0.490234 12.4787L18.8133 23.6756" stroke="white" stroke-width="0.980893" stroke-linecap="square" stroke-linejoin="round"/>
<path d="M37.5976 11.9653L18.8135 23.6772V24.3491V47.5129L38.1616 35.4381V35.3106L38.1567 12.3086V11.6367L37.5976 11.9653Z" stroke="white" stroke-width="0.980893" stroke-linecap="square" stroke-linejoin="round"/>
</svg>
