<svg xmlns="http://www.w3.org/2000/svg" xmlns:xlink="http://www.w3.org/1999/xlink" width="136.915" height="32.655" viewBox="0 0 136.915 32.655">
  <defs>
    <clipPath id="clip-path">
      <rect id="Rectangle_4" data-name="Rectangle 4" width="136.915" height="32.655" fill="none"/>
    </clipPath>
  </defs>
  <g id="로고" transform="translate(-897 -978)">
    <g id="Group_28" data-name="Group 28" transform="translate(897 978)">
      <path id="Path_30" data-name="Path 30" d="M15.432,21.095l13.374-8.308L15.429,4.564" transform="translate(10.731 3.174)" fill="#e20f23"/>
      <path id="Path_31" data-name="Path 31" d="M13.362,0,0,8.324,12.728,16.1,26.16,7.738Z" transform="translate(0)" fill="#f25e57"/>
      <path id="Path_32" data-name="Path 32" d="M20.549,4.792,7.508,12.927l0,.466V29.48L20.943,21.1v-.088l0-15.978V4.564Z" transform="translate(5.22 3.174)" fill="#f09b95"/>
      <g id="Group_27" data-name="Group 27" transform="translate(0 0)">
        <g id="Group_26" data-name="Group 26" clip-path="url(#clip-path)">
          <path id="Path_33" data-name="Path 33" d="M56.825,10.008a11.783,11.783,0,0,0-2.642.254,6.148,6.148,0,0,0-2.106.96,3.272,3.272,0,0,0-1.044,1.243,3.356,3.356,0,0,0-.4,1.5V22.41H46.654V6.73h3.984V8.368a8.923,8.923,0,0,1,2.9-1.412,12.064,12.064,0,0,1,3.291-.451Z" transform="translate(32.447 4.525)" fill="#fff"/>
          <path id="Path_34" data-name="Path 34" d="M84.925,10.008a11.783,11.783,0,0,0-2.642.254,6.148,6.148,0,0,0-2.106.96,3.272,3.272,0,0,0-1.044,1.243,3.356,3.356,0,0,0-.4,1.5V22.41H74.754V6.73h3.984V8.368a8.924,8.924,0,0,1,2.9-1.412,12.064,12.064,0,0,1,3.291-.451Z" transform="translate(51.989 4.525)" fill="#fff"/>
          <path id="Path_35" data-name="Path 35" d="M33.177,11.95h4.34V8.817h-4.34V4.8L26.5,11.218v.732h2.882v7.109c0,2.938,1.533,4.535,4.874,4.535h3.255V19.87H35.262c-1.256,0-2.085-.383-2.085-1.789V11.95Z" transform="translate(18.434 3.34)" fill="#fff"/>
          <path id="Path_36" data-name="Path 36" d="M65.422,3.884v6.589a7.717,7.717,0,1,0,0,12.087v1.673h4.167V3.884Zm-4.1,16.692a4.1,4.1,0,1,1,4.1-4.1,4.1,4.1,0,0,1-4.1,4.1" transform="translate(36.802 2.702)" fill="#fff"/>
          <path id="Path_37" data-name="Path 37" d="M43.873,6.647a7.832,7.832,0,1,0,7.833,7.831,7.833,7.833,0,0,0-7.833-7.831m0,12.045a4.212,4.212,0,1,1,4.213-4.213,4.213,4.213,0,0,1-4.213,4.213" transform="translate(25.065 4.623)" fill="#fff"/>
          <path id="Path_38" data-name="Path 38" d="M79.743,15.467a7.823,7.823,0,1,0-.361,1.558h-4.05a4.206,4.206,0,0,1-7.443-1.562H76.07v0Zm-7.762-5.2a4.209,4.209,0,0,1,3.83,2.47H68.149a4.205,4.205,0,0,1,3.832-2.47" transform="translate(44.612 4.623)" fill="#fff"/>
          <path id="Path_39" data-name="Path 39" d="M36.1,4.89h0A1.419,1.419,0,0,0,34.39,7.079l.024.027.015.017a2.636,2.636,0,0,1-.227,3.949l.236.363c3.572-1.073,3.33-5.761,1.66-6.545" transform="translate(23.686 3.303)" fill="#dc091d"/>
        </g>
      </g>
    </g>
  </g>
</svg>
