<svg xmlns="http://www.w3.org/2000/svg" width="262.93" height="185.768" viewBox="0 0 262.93 185.768">
  <g id="그룹_5491" data-name="그룹 5491" transform="translate(-1309.583 -384.693)">
    <g id="그룹_5489" data-name="그룹 5489">
      <g id="그룹_5486" data-name="그룹 5486">
        <path id="패스_5" data-name="패스 5" d="M1436.9,534.05a34.623,34.623,0,0,0-7.754.745,18.02,18.02,0,0,0-6.181,2.82,9.543,9.543,0,0,0-3.067,3.649,9.849,9.849,0,0,0-1.163,4.4v24.8h-11.695V524.427h11.695v4.81a26.263,26.263,0,0,1,8.5-4.147,35.358,35.358,0,0,1,9.663-1.326Z"/>
      </g>
      <g id="그룹_5487" data-name="그룹 5487">
        <path id="패스_6" data-name="패스 6" d="M1572.513,534.05a34.622,34.622,0,0,0-7.754.745,18.019,18.019,0,0,0-6.181,2.82,9.543,9.543,0,0,0-3.067,3.649,9.849,9.849,0,0,0-1.163,4.4v24.8h-11.694V524.427h11.694v4.81a26.264,26.264,0,0,1,8.5-4.147,35.36,35.36,0,0,1,9.663-1.326Z"/>
      </g>
      <path id="패스_7" data-name="패스 7" d="M1329.168,536.276h12.744v-9.2h-12.744V515.29l-19.585,18.837v2.149h8.458v20.873c0,8.625,4.5,13.312,14.312,13.312h9.559V559.524h-6.622c-3.688,0-6.122-1.125-6.122-5.25v-18Z"/>
      <path id="패스_8" data-name="패스 8" d="M1473.5,510.72v19.347a22.653,22.653,0,1,0,0,35.482v4.912h12.238V510.72Zm-12.039,49.006a12.026,12.026,0,1,1,12.026-12.026A12.025,12.025,0,0,1,1461.46,559.726Z"/>
      <path id="패스_9" data-name="패스 9" d="M1378.62,524.471a22.995,22.995,0,1,0,22.995,22.995A22.995,22.995,0,0,0,1378.62,524.471Zm0,35.362a12.367,12.367,0,1,1,12.368-12.367A12.367,12.367,0,0,1,1378.62,559.833Z"/>
      <path id="패스_10" data-name="패스 10" d="M1537.06,550.366A22.99,22.99,0,1,0,1536,554.94H1524.1a12.346,12.346,0,0,1-21.851-4.586h24.028l0,.012ZM1514.267,535.1a12.36,12.36,0,0,1,11.25,7.25h-22.5A12.358,12.358,0,0,1,1514.267,535.1Z"/>
      <g id="그룹_5488" data-name="그룹 5488">
        <path id="패스_11" data-name="패스 11" d="M1353.164,515.439h0a4.166,4.166,0,0,0-5.011,6.427h0l.07.08.042.048c5.678,6.532-.666,11.59-.666,11.59l.694,1.067C1358.779,531.5,1358.067,517.737,1353.164,515.439Z" fill="#e20f23"/>
        <path id="패스_12" data-name="패스 12" d="M1348.388,534.8l-.095-.147h0Z" fill="#fff"/>
      </g>
    </g>
    <g id="그룹_5490" data-name="그룹 5490">
      <path id="패스_13" data-name="패스 13" d="M1454.862,455.941l39.261-24.389-39.269-24.142" fill="#e20f23"/>
      <path id="패스_14" data-name="패스 14" d="M1454.854,407.41l-37.574-22.716-39.227,24.436,37.364,22.833" fill="#f25e57"/>
      <path id="패스_15" data-name="패스 15" d="M1453.709,408.08l-38.292,23.883,0,1.369v47.228l39.447-24.619v-.255l-.009-46.907V407.41Z" fill="#f09b95"/>
    </g>
  </g>
</svg>
